<?xml version="1.0" standalone="no"?>
<!DOCTYPE svg PUBLIC "-//W3C//DTD SVG 20010904//EN"
 "http://www.w3.org/TR/2001/REC-SVG-20010904/DTD/svg10.dtd">
<svg version="1.0" xmlns="http://www.w3.org/2000/svg"
 width="700.000000pt" height="700.000000pt" viewBox="0 0 700.000000 700.000000"
 preserveAspectRatio="xMidYMid meet">
<metadata>
Created by potrace 1.14, written by Peter Selinger 2001-2017
</metadata>
<g transform="translate(0.000000,700.000000) scale(0.100000,-0.100000)"
fill="#000000" stroke="none">
<path d="M3145 6985 c-145 -17 -213 -26 -239 -31 -12 -3 -43 -9 -71 -14 -531
-93 -1057 -330 -1480 -666 -138 -110 -179 -147 -339 -309 -455 -460 -739 -958
-901 -1585 -9 -36 -19 -74 -21 -85 -2 -11 -10 -54 -19 -95 -15 -79 -30 -171
-40 -255 -4 -27 -8 -61 -11 -75 -25 -149 -24 -630 2 -842 16 -130 23 -173 51
-298 93 -423 261 -807 512 -1170 76 -110 61 -90 192 -250 108 -131 351 -381
479 -492 170 -147 378 -292 576 -403 104 -59 278 -145 291 -145 2 0 25 -10 51
-22 104 -47 393 -139 515 -164 10 -2 26 -5 35 -8 9 -3 34 -7 56 -11 21 -3 41
-7 45 -9 3 -2 31 -7 61 -10 30 -4 66 -8 80 -11 191 -35 754 -41 930 -10 14 2
45 6 70 9 141 16 349 59 515 107 630 182 1188 542 1656 1069 319 359 552 764
694 1210 26 82 62 214 70 255 2 11 12 63 23 115 20 93 23 113 42 256 25 190
34 602 17 769 -46 468 -170 888 -379 1293 -127 245 -155 275 -255 275 -76 0
-136 -48 -152 -124 -10 -43 4 -83 64 -183 26 -44 75 -139 110 -210 149 -308
232 -582 289 -951 32 -206 26 -715 -10 -883 -3 -13 -7 -43 -10 -65 -23 -174
-98 -443 -181 -652 -203 -510 -532 -947 -993 -1318 -463 -373 -973 -584 -1595
-661 -165 -21 -507 -27 -685 -13 -612 49 -1139 262 -1653 670 -131 103 -417
390 -535 536 -293 359 -520 812 -607 1211 -34 152 -60 317 -72 450 -9 108 -9
439 0 550 55 665 272 1217 675 1724 97 122 356 391 466 482 308 259 664 456
1041 577 109 36 308 89 375 101 19 3 46 8 60 11 168 34 348 50 575 50 284 0
455 -20 715 -81 145 -35 179 -35 224 -1 84 64 90 173 14 244 -31 29 -229 82
-413 109 -27 5 -52 9 -55 9 -3 1 -36 5 -75 9 -38 5 -79 11 -90 13 -47 12 -585
10 -690 -2z"/>
<path d="M3448 5217 c-35 -24 -176 -129 -208 -154 -8 -7 -255 -192 -549 -413
-499 -373 -560 -422 -565 -453 -5 -30 -18 -57 -27 -57 -6 0 -8 -438 -7 -1165
l3 -1165 28 -27 27 -28 1350 0 1350 0 27 28 28 27 3 1178 2 1177 -21 42 c-19
37 -113 111 -677 534 -716 537 -694 523 -764 476z m220 -365 c87 -65 297 -223
467 -352 171 -128 316 -238 323 -245 11 -10 -194 -12 -953 -12 -531 0 -964 3
-963 7 2 4 104 84 228 177 124 94 335 254 470 356 135 102 251 186 258 186 8
1 84 -52 170 -117z m1020 -1856 l-3 -1030 -157 0 -158 -1 -1 25 c0 14 -1 299
-1 634 -1 568 -2 610 -18 626 -17 17 -68 18 -849 19 -788 0 -833 -1 -850 -18
-17 -17 -18 -54 -17 -649 1 -555 -1 -632 -14 -633 -21 -1 -282 -1 -297 0 -10
1 -13 214 -13 1029 l0 1027 1190 0 1190 0 -2 -1029z m-431 -433 l2 -593 -27
-1 c-34 -1 -1474 -1 -1484 0 -4 1 -7 268 -8 595 l0 594 758 -2 757 -1 2 -592z"/>
<path d="M3035 2942 c-59 -4 -75 -15 -75 -53 0 -57 -3 -57 546 -55 409 1 504
4 517 15 21 17 22 64 2 81 -11 9 -126 13 -477 14 -255 0 -485 0 -513 -2z"/>
<path d="M2988 2612 c-23 -5 -34 -47 -19 -78 l11 -24 514 0 c559 0 546 -1 546
54 0 51 4 51 -534 51 -276 1 -509 -1 -518 -3z"/>
<path d="M3060 2292 c-83 -3 -100 -12 -100 -52 0 -56 -10 -55 537 -56 541 -1
543 -1 543 50 0 12 -6 30 -13 40 -12 16 -46 18 -452 19 -242 1 -474 1 -515 -1z"/>
</g>
</svg>
